<svg width="656" height="104" viewBox="0 0 656 104" fill="none" xmlns="http://www.w3.org/2000/svg">
<path d="M200.99 75C207.35 75 212.72 74.04 217.1 72.12C221.54 70.14 225.14 67.62 227.9 64.56C230.66 61.5 232.64 58.11 233.84 54.39C235.1 50.67 235.73 47.04 235.73 43.5C235.73 38.7 234.89 34.35 233.21 30.45C231.53 26.55 229.25 23.22 226.37 20.46C223.49 17.76 220.13 15.69 216.29 14.25C212.45 12.75 208.37 12 204.05 12H185.15V15.51H190.82V71.4H185.15V75H200.99ZM194.51 15.51H204.05C207.89 15.51 211.49 16.17 214.85 17.49C218.27 18.81 221.27 20.67 223.85 23.07C226.43 25.53 228.44 28.5 229.88 31.98C231.38 35.4 232.13 39.24 232.13 43.5C232.13 47.04 231.5 50.49 230.24 53.85C229.04 57.15 227.21 60.09 224.75 62.67C222.29 65.31 219.17 67.44 215.39 69.06C211.67 70.62 207.32 71.4 202.34 71.4H194.51V15.51ZM259.385 75V71.49H252.635V41.25H242.015V44.76H248.945V71.49H242.015V75H259.385ZM253.805 29.28C253.805 28.44 253.505 27.75 252.905 27.21C252.305 26.61 251.615 26.31 250.835 26.31C250.115 26.31 249.455 26.61 248.855 27.21C248.255 27.75 247.955 28.44 247.955 29.28C247.955 30.12 248.255 30.84 248.855 31.44C249.455 31.98 250.115 32.25 250.835 32.25C251.615 32.25 252.305 31.98 252.905 31.44C253.505 30.84 253.805 30.12 253.805 29.28ZM286.268 72.12C287.108 71.16 287.708 70.11 288.068 68.97C288.488 67.77 288.698 66.63 288.698 65.55C288.698 63.63 288.278 62.1 287.438 60.96C286.658 59.82 285.668 58.89 284.468 58.17C283.208 57.45 281.858 56.88 280.418 56.46C279.038 55.98 277.718 55.47 276.458 54.93C275.258 54.45 274.208 53.85 273.308 53.13C272.468 52.35 272.048 51.3 272.048 49.98C272.048 48.96 272.228 48.09 272.588 47.37C272.948 46.65 273.398 46.05 273.938 45.57C274.538 45.15 275.228 44.85 276.008 44.67C276.848 44.43 277.658 44.31 278.438 44.31C279.458 44.31 280.418 44.43 281.318 44.67C282.218 44.91 283.088 45.27 283.928 45.75V50.43H287.348V43.86C286.748 43.32 286.088 42.87 285.368 42.51C284.648 42.09 283.898 41.73 283.118 41.43C282.158 41.13 281.318 40.95 280.598 40.89C279.878 40.77 279.128 40.71 278.348 40.71C277.268 40.71 276.098 40.92 274.838 41.34C273.578 41.7 272.468 42.27 271.508 43.05C270.548 43.83 269.768 44.79 269.168 45.93C268.628 47.07 268.358 48.45 268.358 50.07C268.358 52.05 268.748 53.61 269.528 54.75C270.368 55.83 271.418 56.67 272.678 57.27C273.938 57.87 275.288 58.38 276.728 58.8C278.168 59.22 279.488 59.7 280.688 60.24C281.948 60.72 282.968 61.38 283.748 62.22C284.528 63.06 284.918 64.26 284.918 65.82C284.918 66.9 284.708 67.83 284.288 68.61C283.928 69.33 283.418 69.96 282.758 70.5C282.038 71.04 281.258 71.46 280.418 71.76C279.578 72 278.708 72.12 277.808 72.12C276.488 72.12 275.228 72.03 274.028 71.85C272.828 71.61 271.658 71.13 270.518 70.41V65.82H267.188V72.39C268.568 73.71 270.158 74.58 271.958 75C273.818 75.48 275.708 75.72 277.628 75.72C279.668 75.72 281.378 75.39 282.758 74.73C284.198 74.07 285.368 73.2 286.268 72.12ZM312.032 75V71.49H305.372V56.55C305.372 54.75 305.732 53.1 306.452 51.6C307.232 50.1 308.282 48.78 309.602 47.64C310.802 46.56 312.242 45.72 313.922 45.12C315.602 44.52 317.372 44.22 319.232 44.22C321.752 44.34 323.642 45.12 324.902 46.56C326.222 47.94 326.942 49.62 327.062 51.6V71.49H320.042V75H337.412V71.49H330.752V50.61C330.632 47.61 329.612 45.18 327.692 43.32C325.772 41.46 323.162 40.53 319.862 40.53C316.502 40.53 313.502 41.4 310.862 43.14C308.222 44.88 306.302 47.16 305.102 49.98C305.042 48.96 304.982 48.06 304.922 47.28C304.862 46.44 304.802 45.51 304.742 44.49L304.652 41.25H295.202V44.76H301.682V71.49H294.662V75H312.032ZM361.345 44.13C363.685 44.13 365.785 44.79 367.645 46.11C369.565 47.37 371.065 49.02 372.145 51.06C368.065 52.68 363.985 54.3 359.905 55.92C355.885 57.48 351.835 59.07 347.755 60.69C347.335 58.65 347.365 56.67 347.845 54.75C348.325 52.77 349.165 51 350.365 49.44C351.625 47.82 353.185 46.53 355.045 45.57C356.965 44.61 359.065 44.13 361.345 44.13ZM373.135 70.95L370.885 68.25C369.625 69.45 368.185 70.38 366.565 71.04C364.945 71.7 363.205 72.03 361.345 72.03C358.525 72.03 356.005 71.31 353.785 69.87C351.565 68.43 349.915 66.54 348.835 64.2C353.515 62.28 358.165 60.42 362.785 58.62C367.465 56.82 372.145 54.99 376.825 53.13C376.225 51.33 375.445 49.68 374.485 48.18C373.525 46.62 372.415 45.3 371.155 44.22C369.835 43.02 368.335 42.12 366.655 41.52C364.975 40.86 363.205 40.53 361.345 40.53C358.885 40.53 356.575 41.01 354.415 41.97C352.315 42.87 350.455 44.1 348.835 45.66C347.215 47.22 345.955 49.08 345.055 51.24C344.155 53.4 343.705 55.68 343.705 58.08C343.705 60.54 344.155 62.82 345.055 64.92C345.955 67.02 347.215 68.88 348.835 70.5C350.455 72.12 352.315 73.38 354.415 74.28C356.575 75.18 358.885 75.63 361.345 75.63C363.685 75.63 365.845 75.21 367.825 74.37C369.805 73.53 371.575 72.39 373.135 70.95ZM405.931 97.5V93.99H400.171C404.251 85.71 408.331 77.52 412.411 69.42C416.491 61.26 420.571 53.04 424.651 44.76H431.221V41.25H415.471V44.76H420.691C418.411 49.32 416.131 53.85 413.851 58.35C411.631 62.85 409.531 67.29 407.551 71.67C405.451 67.17 403.261 62.7 400.981 58.26C398.761 53.82 396.541 49.32 394.321 44.76H400.081V41.25H383.431V44.76H390.361C392.881 49.92 395.401 55.02 397.921 60.06C400.441 65.1 402.991 70.14 405.571 75.18C404.011 78.3 402.421 81.42 400.801 84.54C399.241 87.66 397.711 90.81 396.211 93.99H388.561V97.5H405.931ZM509.556 75V61.14H506.046V71.49H474.636V45.03H504.786V41.43H474.636V15.51H504.786V25.86H508.296V12H464.466V15.51H470.946V71.49H464.466V75H509.556ZM520.382 92.28C522.062 93.9 524.042 95.16 526.322 96.06C528.662 97.02 531.272 97.5 534.152 97.5C536.552 97.44 538.772 96.93 540.812 95.97C542.912 95.07 544.742 93.78 546.302 92.1C547.862 90.48 549.092 88.47 549.992 86.07C550.892 83.73 551.342 81.06 551.342 78.06V44.76H558.002V41.25H548.372C548.252 42.63 548.162 43.98 548.102 45.3C548.042 46.56 548.012 47.85 548.012 49.17C546.932 46.77 545.102 44.73 542.522 43.05C539.942 41.37 536.972 40.53 533.612 40.53C531.092 40.53 528.752 41.01 526.592 41.97C524.492 42.87 522.632 44.1 521.012 45.66C519.392 47.28 518.132 49.17 517.232 51.33C516.332 53.49 515.882 55.74 515.882 58.08C515.882 60.54 516.332 62.82 517.232 64.92C518.132 67.02 519.392 68.85 521.012 70.41C522.632 72.03 524.492 73.32 526.592 74.28C528.752 75.18 531.092 75.63 533.612 75.63C535.352 75.63 537.002 75.42 538.562 75C540.122 74.52 541.532 73.86 542.792 73.02C543.932 72.3 544.922 71.46 545.762 70.5C546.662 69.54 547.322 68.49 547.742 67.35C547.742 68.13 547.712 68.88 547.652 69.6C547.652 70.32 547.652 70.98 547.652 71.58V77.88C547.652 80.22 547.292 82.35 546.572 84.27C545.852 86.25 544.892 87.93 543.692 89.31C542.432 90.75 540.962 91.83 539.282 92.55C537.662 93.33 535.922 93.72 534.062 93.72C531.902 93.72 529.832 93.3 527.852 92.46C525.872 91.68 524.252 90.63 522.992 89.31L520.382 92.28ZM533.612 44.13C535.472 44.13 537.242 44.46 538.922 45.12C540.602 45.78 542.072 46.71 543.332 47.91C544.652 49.23 545.702 50.76 546.482 52.5C547.262 54.24 547.652 56.1 547.652 58.08C547.652 60.06 547.292 61.89 546.572 63.57C545.852 65.25 544.862 66.69 543.602 67.89C542.342 69.15 540.842 70.17 539.102 70.95C537.422 71.67 535.592 72.03 533.612 72.03C531.632 72.03 529.802 71.7 528.122 71.04C526.442 70.32 524.972 69.33 523.712 68.07C522.452 66.81 521.432 65.34 520.652 63.66C519.932 61.92 519.572 60.06 519.572 58.08C519.572 56.16 519.902 54.39 520.562 52.77C521.282 51.09 522.272 49.62 523.532 48.36C524.732 47.04 526.202 46.02 527.942 45.3C529.682 44.52 531.572 44.13 533.612 44.13ZM568.81 92.28C570.49 93.9 572.47 95.16 574.75 96.06C577.09 97.02 579.7 97.5 582.58 97.5C584.98 97.44 587.2 96.93 589.24 95.97C591.34 95.07 593.17 93.78 594.73 92.1C596.29 90.48 597.52 88.47 598.42 86.07C599.32 83.73 599.77 81.06 599.77 78.06V44.76H606.43V41.25H596.8C596.68 42.63 596.59 43.98 596.53 45.3C596.47 46.56 596.44 47.85 596.44 49.17C595.36 46.77 593.53 44.73 590.95 43.05C588.37 41.37 585.4 40.53 582.04 40.53C579.52 40.53 577.18 41.01 575.02 41.97C572.92 42.87 571.06 44.1 569.44 45.66C567.82 47.28 566.56 49.17 565.66 51.33C564.76 53.49 564.31 55.74 564.31 58.08C564.31 60.54 564.76 62.82 565.66 64.92C566.56 67.02 567.82 68.85 569.44 70.41C571.06 72.03 572.92 73.32 575.02 74.28C577.18 75.18 579.52 75.63 582.04 75.63C583.78 75.63 585.43 75.42 586.99 75C588.55 74.52 589.96 73.86 591.22 73.02C592.36 72.3 593.35 71.46 594.19 70.5C595.09 69.54 595.75 68.49 596.17 67.35C596.17 68.13 596.14 68.88 596.08 69.6C596.08 70.32 596.08 70.98 596.08 71.58V77.88C596.08 80.22 595.72 82.35 595 84.27C594.28 86.25 593.32 87.93 592.12 89.31C590.86 90.75 589.39 91.83 587.71 92.55C586.09 93.33 584.35 93.72 582.49 93.72C580.33 93.72 578.26 93.3 576.28 92.46C574.3 91.68 572.68 90.63 571.42 89.31L568.81 92.28ZM582.04 44.13C583.9 44.13 585.67 44.46 587.35 45.12C589.03 45.78 590.5 46.71 591.76 47.91C593.08 49.23 594.13 50.76 594.91 52.5C595.69 54.24 596.08 56.1 596.08 58.08C596.08 60.06 595.72 61.89 595 63.57C594.28 65.25 593.29 66.69 592.03 67.89C590.77 69.15 589.27 70.17 587.53 70.95C585.85 71.67 584.02 72.03 582.04 72.03C580.06 72.03 578.23 71.7 576.55 71.04C574.87 70.32 573.4 69.33 572.14 68.07C570.88 66.81 569.86 65.34 569.08 63.66C568.36 61.92 568 60.06 568 58.08C568 56.16 568.33 54.39 568.99 52.77C569.71 51.09 570.7 49.62 571.96 48.36C573.16 47.04 574.63 46.02 576.37 45.3C578.11 44.52 580 44.13 582.04 44.13ZM633.348 72.12C634.188 71.16 634.788 70.11 635.148 68.97C635.568 67.77 635.778 66.63 635.778 65.55C635.778 63.63 635.358 62.1 634.518 60.96C633.738 59.82 632.748 58.89 631.548 58.17C630.288 57.45 628.938 56.88 627.498 56.46C626.118 55.98 624.798 55.47 623.538 54.93C622.338 54.45 621.288 53.85 620.388 53.13C619.548 52.35 619.128 51.3 619.128 49.98C619.128 48.96 619.308 48.09 619.668 47.37C620.028 46.65 620.478 46.05 621.018 45.57C621.618 45.15 622.308 44.85 623.088 44.67C623.928 44.43 624.738 44.31 625.518 44.31C626.538 44.31 627.498 44.43 628.398 44.67C629.298 44.91 630.168 45.27 631.008 45.75V50.43H634.428V43.86C633.828 43.32 633.168 42.87 632.448 42.51C631.728 42.09 630.978 41.73 630.198 41.43C629.238 41.13 628.398 40.95 627.678 40.89C626.958 40.77 626.208 40.71 625.428 40.71C624.348 40.71 623.178 40.92 621.918 41.34C620.658 41.7 619.548 42.27 618.588 43.05C617.628 43.83 616.848 44.79 616.248 45.93C615.708 47.07 615.438 48.45 615.438 50.07C615.438 52.05 615.828 53.61 616.608 54.75C617.448 55.83 618.498 56.67 619.758 57.27C621.018 57.87 622.368 58.38 623.808 58.8C625.248 59.22 626.568 59.7 627.768 60.24C629.028 60.72 630.048 61.38 630.828 62.22C631.608 63.06 631.998 64.26 631.998 65.82C631.998 66.9 631.788 67.83 631.368 68.61C631.008 69.33 630.498 69.96 629.838 70.5C629.118 71.04 628.338 71.46 627.498 71.76C626.658 72 625.788 72.12 624.888 72.12C623.568 72.12 622.308 72.03 621.108 71.85C619.908 71.61 618.738 71.13 617.598 70.41V65.82H614.268V72.39C615.648 73.71 617.238 74.58 619.038 75C620.898 75.48 622.788 75.72 624.708 75.72C626.748 75.72 628.458 75.39 629.838 74.73C631.278 74.07 632.448 73.2 633.348 72.12Z" fill="black"/>
<g filter="url(#filter0_i_115_362)">
<ellipse cx="79.6449" cy="81.894" rx="22.2054" ry="17.0811" transform="rotate(13.8304 79.6449 81.894)" fill="#621339"/>
</g>
<path d="M68.8068 66.8525C68.9219 66.6892 69.0848 66.568 69.2741 66.5043C70.0694 66.2367 72.3038 65.5275 73.4552 65.5937C74.0803 65.6297 74.8628 65.6352 75.5839 65.6285C76.4253 65.6208 76.9449 66.5935 76.4676 67.2865C74.6591 69.9124 71.3397 75.0582 70.1359 79.0763C68.9664 82.9803 69.0085 88.9257 69.1611 92.3974C69.2024 93.3361 67.9964 93.894 67.2585 93.3122C66.8577 92.9962 66.457 92.7158 66.1162 92.5455C65.1244 92.0498 63.8688 90.5694 63.4289 90.0266C63.322 89.8946 63.2553 89.7405 63.2328 89.5722C63.058 88.2598 62.3353 82.0898 63.5016 77.443C64.6267 72.9604 67.9947 68.0046 68.8068 66.8525Z" fill="#FE6FB4"/>
<path d="M95.8274 73.8562C95.7925 73.6562 95.695 73.4754 95.5473 73.3361C94.897 72.7227 92.9819 70.9718 91.7834 70.4577C91.0826 70.1571 90.2132 69.7333 89.4449 69.3452C88.6881 68.9629 87.7893 69.6229 87.9253 70.4599C88.4451 73.6592 89.238 79.8167 88.4642 83.9403C87.7058 87.9814 84.6864 93.2389 82.8242 96.2004C82.3275 96.9903 83.0806 98.0659 84.0017 97.917C84.6727 97.8085 85.3454 97.7346 85.8545 97.7566C87.102 97.8107 89.1093 97.1206 89.8069 96.8643C89.9705 96.8042 90.1099 96.7027 90.2163 96.5647C91.0421 95.4936 94.8069 90.4326 95.9278 85.7777C97.0098 81.2842 96.074 75.2684 95.8274 73.8562Z" fill="#FE6FB4"/>
<path d="M78.7704 66.8803C78.9296 66.228 79.6761 65.9131 80.2763 66.2143C80.9686 66.5617 81.8461 66.9558 82.5747 67.1351C83.3188 67.3183 84.3045 67.3753 85.0872 67.3874C85.7438 67.3975 86.2534 67.9953 86.1125 68.6367C85.5337 71.2723 84.1243 77.4996 82.7121 82.2972C81.1786 87.5067 79.1219 94.6174 78.396 97.1305C78.2466 97.6478 77.7151 97.9515 77.1999 97.7952C76.5103 97.586 75.5752 97.2686 74.8932 96.908C74.322 96.606 73.5371 96.4807 72.8655 96.4328C72.1891 96.3845 71.6584 95.7503 71.8193 95.0915C72.5374 92.1511 74.2852 85.0075 75.4143 80.5005C76.5071 76.1384 78.0981 69.6342 78.7704 66.8803Z" fill="#FE6FB4"/>
<g filter="url(#filter1_i_115_362)">
<ellipse cx="33.1686" cy="68.799" rx="26.3025" ry="20.2327" transform="rotate(-144.18 33.1686 68.799)" fill="#DBEB7F"/>
</g>
<circle cx="27.2084" cy="65.9943" r="10.1163" transform="rotate(-144.18 27.2084 65.9943)" fill="#FEFEFE"/>
<circle cx="25.2396" cy="64.5734" r="6.0698" transform="rotate(-144.18 25.2396 64.5734)" fill="#251872"/>
<circle cx="25.2395" cy="64.5734" r="2.83257" transform="rotate(-144.18 25.2395 64.5734)" fill="black"/>
<g filter="url(#filter2_i_115_362)">
<ellipse cx="124.201" cy="61.1931" rx="27.0816" ry="20.832" transform="rotate(18.0356 124.201 61.1931)" fill="#05B2C5"/>
</g>
<path d="M124.944 72.6214C127.341 72.2952 131.585 72.2842 130.592 70.0786C129.857 68.4466 128.019 68.7939 126.234 68.6597C124.998 68.5668 124.304 69.0948 123.074 68.9452C121.943 68.8078 121.316 68.5572 120.301 68.0423C119.702 67.739 119.365 67.5541 118.845 67.1301C117.936 66.3886 117.427 65.8579 116.984 64.7715C116.516 63.624 116.549 62.8414 116.698 61.6113C116.836 60.4807 117.047 59.8329 117.601 58.8381C118.205 57.7558 118.513 57.3824 119.297 56.3229C119.945 55.4452 120.026 54.4833 119.278 53.6879C118.49 52.8496 117.47 52.8242 116.376 53.1811C114.799 53.6959 114.57 55.2389 113.898 56.7558C113.172 58.3921 112.969 59.4554 112.875 61.2427C112.775 63.1376 113.213 64.2347 113.962 65.9783C114.977 68.3424 115.791 69.8239 117.951 71.2208C120.29 72.7331 122.184 72.9969 124.944 72.6214Z" fill="#FEFEFE"/>
<path d="M122.042 53.2734C121.163 53.9978 119.903 54.8245 121.001 55.1252C121.567 55.2801 123.06 55.2177 123.636 55.1069C124.496 54.9413 125.746 55.3557 125.746 55.3557C125.746 55.3557 126.59 55.3072 127.202 56.2678C127.592 56.8816 127.91 57.5253 127.478 58.1105C127.204 58.4806 127.214 58.5304 126.824 58.7738C126.824 58.7738 125.815 59.4228 125.248 59.5754C124.463 59.787 124.066 58.7749 123.267 58.9304C122.816 59.0183 122.554 59.1514 122.217 59.4647C121.621 60.0186 121.589 60.6322 121.572 61.4456C121.551 62.4872 121.961 63.0582 122.512 63.9424C122.822 64.4403 122.988 64.751 123.442 65.1217C124.199 65.7387 124.74 66.0667 125.69 66.2919C126.653 66.5202 127.218 66.5221 128.196 66.6697C129.175 66.8172 129.842 66.6436 130.831 66.6513C131.923 66.6597 132.578 66.6316 133.595 66.2368C134.567 65.8598 135.262 65.6483 135.825 64.7719C136.177 64.2244 136.18 63.8179 136.341 63.1872C136.585 62.2281 136.711 61.6709 136.719 60.6812C136.727 59.5898 136.531 58.985 136.304 57.9172C136.061 56.7694 135.99 56.0875 135.494 55.0242C135.053 54.0801 134.687 53.6018 134.029 52.7946C133.339 51.9489 132.951 51.4312 132.039 50.8321C130.815 50.0283 129.912 49.9433 128.473 49.6711C127.155 49.4218 126.38 49.293 125.046 49.4315C124.102 49.5295 122.115 49.694 122.024 50.6384C121.93 51.6101 123.083 51.4215 124.797 51.5414C125.979 51.624 127.024 51.6721 128.095 52.1771C128.978 52.5933 129.107 52.7219 129.947 53.2183C130.887 53.7733 131.425 54.217 131.937 55.1808C132.383 56.0185 132.601 55.8349 133.006 57.2814C133.326 58.422 133.457 59.2695 132.895 60.3126C132.453 61.1348 131.522 62.0174 130.837 62.6675L130.804 62.6988C130.276 63.1996 129.853 63.128 129.228 63.5003C128.291 64.0588 127.425 64.433 126.464 63.9148C125.748 63.5287 124.839 62.9025 125.267 62.2104C125.267 62.2104 125.865 61.764 126.317 61.676C127.116 61.5205 127.493 62.4417 128.298 62.321C129.102 62.2003 129.499 61.7626 130.002 61.1233C130.606 60.3562 130.683 59.718 130.776 58.7463C130.881 57.6598 130.863 56.952 130.362 55.9823C129.793 54.8813 129.042 54.5219 127.976 53.8908C126.715 53.1451 124.41 52.7299 124.41 52.7299L122.042 53.2734Z" fill="#FEFEFE"/>
<path d="M124.944 72.6214C127.341 72.2952 131.585 72.2842 130.592 70.0786C129.857 68.4466 128.019 68.7939 126.234 68.6597C124.998 68.5668 124.304 69.0948 123.074 68.9452C121.943 68.8078 121.316 68.5572 120.301 68.0423C119.702 67.739 119.365 67.5541 118.845 67.1301C117.936 66.3886 117.427 65.8579 116.984 64.7715C116.516 63.624 116.549 62.8414 116.698 61.6113C116.836 60.4807 117.047 59.8329 117.601 58.8381C118.205 57.7558 118.513 57.3824 119.297 56.3229C119.945 55.4452 120.026 54.4833 119.278 53.6879C118.49 52.8496 117.47 52.8242 116.376 53.1811C114.799 53.6959 114.57 55.2389 113.898 56.7558C113.172 58.3921 112.969 59.4554 112.875 61.2427C112.775 63.1376 113.213 64.2347 113.962 65.9783C114.977 68.3424 115.791 69.8239 117.951 71.2208C120.29 72.7331 122.184 72.9969 124.944 72.6214Z" stroke="#FEFEFE"/>
<path d="M122.042 53.2734C121.163 53.9978 119.903 54.8245 121.001 55.1252C121.567 55.2801 123.06 55.2177 123.636 55.1069C124.496 54.9413 125.746 55.3557 125.746 55.3557C125.746 55.3557 126.59 55.3072 127.202 56.2678C127.592 56.8816 127.91 57.5253 127.478 58.1105C127.204 58.4806 127.214 58.5304 126.824 58.7738C126.824 58.7738 125.815 59.4228 125.248 59.5754C124.463 59.787 124.066 58.7749 123.267 58.9304C122.816 59.0183 122.554 59.1514 122.217 59.4647C121.621 60.0186 121.589 60.6322 121.572 61.4456C121.551 62.4872 121.961 63.0582 122.512 63.9424C122.822 64.4403 122.988 64.751 123.442 65.1217C124.199 65.7387 124.74 66.0667 125.69 66.2919C126.653 66.5202 127.218 66.5221 128.196 66.6697C129.175 66.8172 129.842 66.6436 130.831 66.6513C131.923 66.6597 132.578 66.6316 133.595 66.2368C134.567 65.8598 135.262 65.6483 135.825 64.7719C136.177 64.2244 136.18 63.8179 136.341 63.1872C136.585 62.2281 136.711 61.6709 136.719 60.6812C136.727 59.5898 136.531 58.985 136.304 57.9172C136.061 56.7694 135.99 56.0875 135.494 55.0242C135.053 54.0801 134.687 53.6018 134.029 52.7946C133.339 51.9489 132.951 51.4312 132.039 50.8321C130.815 50.0283 129.912 49.9433 128.473 49.6711C127.155 49.4218 126.38 49.293 125.046 49.4315C124.102 49.5295 122.115 49.694 122.024 50.6384C121.93 51.6101 123.083 51.4215 124.797 51.5414C125.979 51.624 127.024 51.6721 128.095 52.1771C128.978 52.5933 129.107 52.7219 129.947 53.2183C130.887 53.7733 131.425 54.217 131.937 55.1808C132.383 56.0185 132.601 55.8349 133.006 57.2814C133.326 58.422 133.457 59.2695 132.895 60.3126C132.453 61.1348 131.522 62.0174 130.837 62.6675L130.804 62.6988C130.276 63.1996 129.853 63.128 129.228 63.5003C128.291 64.0588 127.425 64.433 126.464 63.9148C125.748 63.5287 124.839 62.9025 125.267 62.2104C125.267 62.2104 125.865 61.764 126.317 61.676C127.116 61.5205 127.493 62.4417 128.298 62.321C129.102 62.2003 129.499 61.7626 130.002 61.1233C130.606 60.3562 130.683 59.718 130.776 58.7463C130.881 57.6598 130.863 56.952 130.362 55.9823C129.793 54.8813 129.042 54.5219 127.976 53.8908C126.715 53.1451 124.41 52.7299 124.41 52.7299L122.042 53.2734Z" stroke="#FEFEFE"/>
<g filter="url(#filter3_i_115_362)">
<ellipse cx="72.8575" cy="36.365" rx="32.5" ry="25" transform="rotate(0.253728 72.8575 36.365)" fill="#FEFEFE"/>
</g>
<circle cx="63.1754" cy="33.7589" r="5" transform="rotate(-4.18935 63.1754 33.7589)" fill="black"/>
<circle cx="87.1112" cy="32.0056" r="5" transform="rotate(-4.18935 87.1112 32.0056)" fill="black"/>
<line x1="64.1361" y1="33.1872" x2="86.0773" y2="31.58" stroke="black"/>
<path d="M122.6 17.3763C120.545 22.5029 124.109 21.6431 115.72 31.8562C113.773 27.3054 101.895 16.6203 105.335 9.3804C107.39 4.25388 111.598 1.99269 116.481 3.0739C122.412 4.38728 124.654 12.2498 122.6 17.3763Z" fill="#FF4D4D"/>
<path d="M120.747 16.5895C118.7 21.697 120.797 19.2928 115.794 31.7775C120.509 29.9103 137.194 30.6936 139.671 23.0997C141.717 17.9922 140.082 13.4039 135.565 10.7213C130.077 7.46257 122.794 11.4821 120.747 16.5895Z" fill="#FE8E8E"/>
<path d="M112.024 9.25866C110.523 11.0296 109.338 12.4921 107.943 11.3094C106.547 10.1267 107.795 8.71803 109.296 6.94711C110.797 5.1762 112.043 3.76594 113.377 4.89636C114.711 6.02679 113.525 7.48775 112.024 9.25866Z" fill="white"/>
<rect x="111.08" y="6.18771" width="2.27933" height="3.4324" rx="1" transform="rotate(41.5465 111.08 6.18771)" fill="#FFC773"/>
<defs>
<filter id="filter0_i_115_362" x="57.696" y="60.4748" width="47.8977" height="38.8385" filterUnits="userSpaceOnUse" color-interpolation-filters="sRGB">
<feFlood flood-opacity="0" result="BackgroundImageFix"/>
<feBlend mode="normal" in="SourceGraphic" in2="BackgroundImageFix" result="shape"/>
<feColorMatrix in="SourceAlpha" type="matrix" values="0 0 0 0 0 0 0 0 0 0 0 0 0 0 0 0 0 0 127 0" result="hardAlpha"/>
<feOffset dx="7" dy="-4"/>
<feGaussianBlur stdDeviation="2"/>
<feComposite in2="hardAlpha" operator="arithmetic" k2="-1" k3="1"/>
<feColorMatrix type="matrix" values="0 0 0 0 0 0 0 0 0 0 0 0 0 0 0 0 0 0 0.25 0"/>
<feBlend mode="normal" in2="shape" result="effect1_innerShadow_115_362"/>
</filter>
<filter id="filter1_i_115_362" x="8.77002" y="42.3022" width="52.7974" height="48.9936" filterUnits="userSpaceOnUse" color-interpolation-filters="sRGB">
<feFlood flood-opacity="0" result="BackgroundImageFix"/>
<feBlend mode="normal" in="SourceGraphic" in2="BackgroundImageFix" result="shape"/>
<feColorMatrix in="SourceAlpha" type="matrix" values="0 0 0 0 0 0 0 0 0 0 0 0 0 0 0 0 0 0 127 0" result="hardAlpha"/>
<feOffset dx="7" dy="-4"/>
<feGaussianBlur stdDeviation="2"/>
<feComposite in2="hardAlpha" operator="arithmetic" k2="-1" k3="1"/>
<feColorMatrix type="matrix" values="0 0 0 0 0 0 0 0 0 0 0 0 0 0 0 0 0 0 0.25 0"/>
<feBlend mode="normal" in2="shape" result="effect1_innerShadow_115_362"/>
</filter>
<filter id="filter2_i_115_362" x="97.6479" y="35.6776" width="57.1055" height="47.0309" filterUnits="userSpaceOnUse" color-interpolation-filters="sRGB">
<feFlood flood-opacity="0" result="BackgroundImageFix"/>
<feBlend mode="normal" in="SourceGraphic" in2="BackgroundImageFix" result="shape"/>
<feColorMatrix in="SourceAlpha" type="matrix" values="0 0 0 0 0 0 0 0 0 0 0 0 0 0 0 0 0 0 127 0" result="hardAlpha"/>
<feOffset dx="7" dy="-4"/>
<feGaussianBlur stdDeviation="2"/>
<feComposite in2="hardAlpha" operator="arithmetic" k2="-1" k3="1"/>
<feColorMatrix type="matrix" values="0 0 0 0 0 0 0 0 0 0 0 0 0 0 0 0 0 0 0.25 0"/>
<feBlend mode="normal" in2="shape" result="effect1_innerShadow_115_362"/>
</filter>
<filter id="filter3_i_115_362" x="40.3577" y="7.36483" width="68.9998" height="54.0004" filterUnits="userSpaceOnUse" color-interpolation-filters="sRGB">
<feFlood flood-opacity="0" result="BackgroundImageFix"/>
<feBlend mode="normal" in="SourceGraphic" in2="BackgroundImageFix" result="shape"/>
<feColorMatrix in="SourceAlpha" type="matrix" values="0 0 0 0 0 0 0 0 0 0 0 0 0 0 0 0 0 0 127 0" result="hardAlpha"/>
<feOffset dx="7" dy="-4"/>
<feGaussianBlur stdDeviation="2"/>
<feComposite in2="hardAlpha" operator="arithmetic" k2="-1" k3="1"/>
<feColorMatrix type="matrix" values="0 0 0 0 0 0 0 0 0 0 0 0 0 0 0 0 0 0 0.25 0"/>
<feBlend mode="normal" in2="shape" result="effect1_innerShadow_115_362"/>
</filter>
</defs>
</svg>
